#!OML:ASF I:\salsa\salsa 7_09\Patient 1\Session 1\dancermale.ASF
:FULLY-SPECIFIED
:DEGREES
1839
root 2.06239 17.0061 -9.33199 10.6887 -4.91439 713.747
lowerback -11.1746 6.39988 -6.29623
upperback -4.64979 9.3228 -8.67382
thorax 1.79645 4.64272 -4.39762
lowerneck -11.2232 0.190498 -1.52472
upperneck 33.8544 -2.58556 10.4508
head 13.4381 0.0604547 4.07086
rclavicle -1.19271e-014 -2.54444e-014
rhumerus 76.8339 14.628 -38.9162
rradius 80.86
rwrist 37.6573
rhand -36.3736 2.27577
rfingers 7.12502
rthumb -9.47027 -27.4914
lclavicle -1.19271e-014 -2.54444e-014
lhumerus -58.991 -73.0717 149.236
lradius 85.1924
lwrist 44.9518
lhand -23.6173 40.6575
lfingers 7.12502
lthumb 2.847 -649.382
rfemur -8.13789 -3.60237 30.7416
rtibia 38.9492
rfoot -11.1569 2.54791
rtoes -0.284635
lfemur -41.8398 -15.3669 -5.30058
ltibia 48.364
lfoot -21.8917 -0.0847982
ltoes -12.7221
1840
root 2.06754 17.0115 -9.2938 10.8274 -7.21087 713.359
lowerback -11.5661 6.05672 -6.23075
upperback -4.90304 8.86605 -8.73288
thorax 1.74418 4.41037 -4.52729
lowerneck -10.9063 0.724237 -1.41129
upperneck 33.4542 -1.90483 10.7019
head 13.1358 0.378061 4.21139
rclavicle 8.84592e-015 2.8625e-014
rhumerus 78.6907 9.46695 -34.0983
rradius 79.7542
rwrist 40.9966
rhand -35.1878 1.79798
rfingers 7.12502
rthumb -8.326 -28.0179
lclavicle 8.84592e-015 2.8625e-014
lhumerus -53.2945 -72.6431 146.006
lradius 86.3557
lwrist 44.3326
lhand -25.0611 40.2162
lfingers 7.12502
lthumb 1.45253 -649.809
rfemur -8.18317 -2.84364 30.4824
rtibia 39.3724
rfoot -10.7891 3.77906
rtoes 1.2398
lfemur -42.0347 -17.17 -3.26767
ltibia 46.237
lfoot -22.7599 -1.78658
ltoes -16.6126
1841
root 2.07378 17.0191 -9.24017 10.9714 -9.75957 713
lowerback -11.912 5.68404 -6.19169
upperback -5.1838 8.36174 -8.78779
thorax 1.62868 4.15427 -4.65588
lowerneck -11.0645 1.287 -0.997816
upperneck 33.6925 -1.20847 10.6233
head 13.2143 0.720189 4.21355
rclavicle -8.44835e-016 -3.18055e-015
rhumerus 79.8354 4.29877 -29.4362
rradius 79.2174
rwrist 44.0422
rhand -34.7382 0.246653
rfingers 7.12502
rthumb -7.8921 -29.586
lclavicle -8.44835e-016 -3.18055e-015
lhumerus -46.9951 -72.0256 142.148
lradius 87.5396
lwrist 43.6312
lhand -25.9323 40.0751
lfingers 7.12502
lthumb 0.611155 -649.946
rfemur -8.02874 -2.1736 30.043
rtibia 39.4857
rfoot -10.214 5.18026
rtoes 3.39214
lfemur -41.9208 -18.6419 -1.25698
ltibia 43.8806
lfoot -23.7341 -3.62131
ltoes -20.3581
1842
root 2.08288 17.0304 -9.17391 11.1166 -12.6047 712.646
lowerback -12.1905 5.25714 -6.08619
upperback -5.52206 7.76093 -8.81425
thorax 1.41387 3.84982 -4.81715
lowerneck -11.1223 1.85649 -0.530952
upperneck 33.8906 -0.461823 10.3784
head 13.2538 1.0643 4.14085
rclavicle 3.02153e-014 -9.54166e-015
rhumerus 80.4563 -0.648987 -24.9756
rradius 78.9532
rwrist 46.6548
rhand -35.6627 -2.05757
rfingers 7.12502
rthumb -8.78432 -31.8548
lclavicle 3.02153e-014 -9.54166e-015
lhumerus -40.0722 -71.296 137.405
lradius 88.7206
lwrist 43.3111
lhand -27.3474 39.2256
lfingers 7.12502
lthumb -0.75565 -650.796
rfemur -7.74764 -1.3088 29.5286
rtibia 39.463
rfoot -9.61181 6.49161
rtoes 4.9382
lfemur -41.4394 -19.734 0.633699
ltibia 41.4387
lfoot -24.569 -5.9393
ltoes -22.626
1843
root 2.0918 17.0469 -9.09237 11.1916 -15.7815 712.232
lowerback -12.429 4.7762 -5.85063
upperback -5.84035 7.06736 -8.73581
thorax 1.19345 3.49607 -4.95521
lowerneck -10.9403 2.43777 -0.302618
upperneck 33.803 0.375399 10.1585
head 13.1111 1.41012 4.10679
rclavicle -1.78906e-014 -6.36111e-015
rhumerus 80.6817 -5.38408 -20.8036
rradius 78.9987
rwrist 48.9836
rhand -37.6383 -5.05479
rfingers 7.12502
rthumb -10.6904 -34.7628
lclavicle -1.78906e-014 -6.36111e-015
lhumerus -32.4155 -70.2354 131.489
lradius 89.9557
lwrist 42.7597
lhand -30.2362 38.6669
lfingers 7.12502
lthumb -3.5456 -651.383
rfemur -7.1948 -0.0992949 29.0442
rtibia 39.2679
rfoot -9.03309 7.54811
rtoes 6.51087
lfemur -40.4352 -20.5801 2.36187
ltibia 39.1541
lfoot -25.2272 -7.81907
ltoes -24.5747
1844
root 2.10968 17.0658 -8.99602 11.3732 -19.1691 711.798
lowerback -12.8456 4.26827 -5.52518
upperback -6.0926 6.3508 -8.56427
thorax 1.1333 3.12597 -5.03209
lowerneck -10.9063 2.95272 -0.376809
upperneck 33.7673 1.10341 10.1642
head 13.0284 1.70102 4.20848
rclavicle 3.91606e-014 2.22639e-014
rhumerus 80.4691 -10.0182 -17.1889
rradius 79.6684
rwrist 50.4737
rhand -38.2931 -7.41029
rfingers 7.12502
rthumb -11.3219 -37.0847
lclavicle 3.91606e-014 2.22639e-014
lhumerus -23.3962 -68.8008 124.978
lradius 90.3558
lwrist 41.6696
lhand -32.0546 40.3298
lfingers 7.12502
lthumb -5.30143 -649.756
rfemur -6.62704 1.204 28.4625
rtibia 38.8971
rfoot -8.2973 8.57116
rtoes 9.7829
lfemur -39.2402 -21.1844 3.88093
ltibia 37.2995
lfoot -25.8246 -8.92939
ltoes -26.7346
1845
root 2.13591 17.0819 -8.88526 11.6819 -22.635 711.349
lowerback -13.3746 3.70254 -5.16236
upperback -6.33294 5.56133 -8.31728
thorax 1.13391 2.71742 -5.0589
lowerneck -11.2405 3.35643 -0.361834
upperneck 34.1829 1.64029 10.0488
head 13.2404 1.91045 4.26364
rclavicle -6.04305e-014 6.36111e-014
rhumerus 79.911 -14.3871 -14.4723
rradius 81.0041
rwrist 50.8746
rhand -37.9552 -8.37939
rfingers 7.12502
rthumb -10.9961 -38.0714
lclavicle -6.04305e-014 6.36111e-014
lhumerus -15.0982 -66.8864 118.566
lradius 91.33
lwrist 39.6189
lhand -29.5519 41.9283
lfingers 7.12502
lthumb -2.88467 -648.112
rfemur -6.22039 2.03406 27.8491
rtibia 38.5116
rfoot -7.98864 9.23331
rtoes 6.52278
lfemur -37.9019 -21.383 5.0921
ltibia 35.8729
lfoot -26.4155 -10.1954
ltoes -27.5529
1846
root 2.16844 17.0962 -8.75489 12.031 -26.4159 710.871
lowerback -14.0539 3.13085 -4.82342
upperback -6.54226 4.77565 -7.92764
thorax 1.22968 2.31028 -4.91986
lowerneck -11.4183 3.63378 -0.0193564
upperneck 34.5156 2.11936 9.30109
head 13.4083 2.04653 3.98921
rclavicle -1.07344e-014 -1.90833e-014
rhumerus 79.2086 -18.3682 -12.6792
rradius 82.6269
rwrist 51.3355
rhand -37.941 -9.66634
rfingers 7.12502
rthumb -10.9823 -39.3591
lclavicle -1.07344e-014 -1.90833e-014
lhumerus -7.23319 -64.0612 112.706
lradius 92.422
lwrist 36.974
lhand -31.2545 43.1062
lfingers 7.12502
lthumb -4.52885 -646.962
rfemur -5.73764 3.26424 27.0662
rtibia 38.2285
rfoot -7.55473 9.92523
rtoes 7.83351
lfemur -36.0652 -21.2924 5.86
ltibia 34.7769
lfoot -26.8186 -11.0116
ltoes -30.1906
1847
root 2.20056 17.1121 -8.60486 12.3378 -30.6501 710.443
lowerback -15.043 2.56129 -4.64961
upperback -6.51019 4.05586 -7.33935
thorax 1.72409 1.9377 -4.45791
lowerneck -11.6165 3.89131 -0.260496
upperneck 34.5488 2.62321 8.90111
head 13.4285 2.16153 3.94157
rclavicle 1.11319e-014 1.27222e-014
rhumerus 78.6303 -22.2595 -11.8715
rradius 84.5787
rwrist 51.6597
rhand -37.9852 -10.7338
rfingers 7.12502
rthumb -11.025 -40.4242
lclavicle 1.11319e-014 1.27222e-014
lhumerus 1.10916 -60.8193 106.41
lradius 93.5606
lwrist 33.078
lhand -32.9725 44.2931
lfingers 7.12502
lthumb -6.18766 -645.817
rfemur -5.13843 4.82777 26.008
rtibia 37.8922
rfoot -7.06524 10.6401
rtoes 11.2315
lfemur -33.5738 -21.2993 6.02512
ltibia 34.0108
lfoot -27.5156 -11.4195
ltoes -32.3471
1848
root 2.23638 17.1285 -8.43765 12.7278 -35.1107 710.106
lowerback -16.3295 1.96342 -4.50363
upperback -6.31731 3.33397 -6.67348
thorax 2.54847 1.56313 -3.9081
lowerneck -12.4489 3.87763 -0.481485
upperneck 34.8985 2.74123 8.34737
head 13.7632 2.09314 3.82095
rclavicle 8.26944e-014 -9.22361e-014
rhumerus 78.2759 -26.1288 -12.2211
rradius 86.7725
rwrist 51.9771
rhand -38.1747 -12.2264
rfingers 7.12502
rthumb -11.2077 -41.9071
lclavicle 8.26944e-014 -9.22361e-014
lhumerus 9.78889 -57.1936 100.251
lradius 94.357
lwrist 28.366
lhand -35.3562 45.7241
lfingers 7.12502
lthumb -8.48852 -644.466
rfemur -4.71246 6.37496 24.6849
rtibia 37.4832
rfoot -6.76728 11.1652
rtoes 12.9779
lfemur -30.8263 -21.1332 5.57616
ltibia 33.4936
lfoot -28.424 -11.7796
ltoes -32.1947
1849
root 2.28336 17.1433 -8.25307 13.2137 -39.7053 709.945
lowerback -17.6881 1.42214 -4.1507
upperback -6.1816 2.64607 -6.20731
thorax 3.37909 1.20208 -3.71275
lowerneck -12.8746 3.62689 -0.41851
upperneck 34.8561 2.4279 7.8493
head 13.8717 1.87447 3.56978
rclavicle 8.98507e-014 -2.8625e-014
rhumerus 77.962 -29.6887 -13.7492
rradius 89.0028
rwrist 52.2866
rhand -38.0798 -14.152
rfingers 7.12502
rthumb -11.1162 -43.8375
lclavicle 8.98507e-014 -2.8625e-014
lhumerus 18.044 -53.1615 94.8919
lradius 95.3065
lwrist 23.5898
lhand -37.6607 47.4008
lfingers 7.12502
lthumb -10.712 -642.892
rfemur -4.62621 7.63439 22.9479
rtibia 37.0886
rfoot -6.693 11.5377
rtoes 13.8363
lfemur -28.082 -20.7269 4.44177
ltibia 32.8608
lfoot -29.3578 -10.9328
ltoes -31.5568
1850
root 2.32461 17.1606 -8.05525 13.4294 -44.5833 710.716
lowerback -19.2692 0.816946 -4.47741
upperback -6.21558 1.98153 -5.92676
thorax 4.1221 0.850089 -3.35654
lowerneck -12.988 3.33492 -0.823034
upperneck 34.3295 2.08617 7.74928
head 13.6735 1.63803 3.51857
rclavicle -1.51076e-014 4.77083e-014
rhumerus 77.7253 -32.8699 -16.2332
rradius 91.3067
rwrist 52.6981
rhand -37.5334 -15.3606
rfingers 7.12502
rthumb -10.5892 -45.0738
lclavicle -1.51076e-014 4.77083e-014
lhumerus 26.0184 -49.0663 89.7669
lradius 96.396
lwrist 19.1532
lhand -39.4849 48.9019
lfingers 7.12502
lthumb -12.4712 -641.49
rfemur -5.13798 8.7293 20.2167
rtibia 36.7906
rfoot -6.86056 11.5513
rtoes 15.3225
lfemur -25.5941 -20.0002 2.11846
ltibia 31.9861
lfoot -30.0134 -7.52784
ltoes -33.5817
1851
root 2.37294 17.1751 -7.85451 13.6302 -49.3656 711.503
lowerback -20.3595 0.0966707 -5.0579
upperback -6.53057 1.13757 -5.27939
thorax 4.29343 0.418899 -2.52523
lowerneck -12.9862 2.77259 -0.840769
upperneck 34.3007 1.58247 6.5409
head 13.7058 1.22363 2.95279
rclavicle -1.43125e-014 6.67916e-014
rhumerus 78.4509 -35.2918 -19.698
rradius 93.0689
rwrist 53.4071
rhand -37.0401 -15.9436
rfingers 7.12502
rthumb -10.1133 -45.6805
lclavicle -1.43125e-014 6.67916e-014
lhumerus 33.6661 -44.5296 86.2672
lradius 96.9155
lwrist 14.686
lhand -40.1651 50.9845
lfingers 7.12502
lthumb -13.1269 -639.449
rfemur -5.8207 9.84551 17.6798
rtibia 36.4792
rfoot -7.32373 10.6492
rtoes 17.592
lfemur -23.4483 -18.3553 -0.427224
ltibia 31.2149
lfoot -30.0254 -3.56706
ltoes -35.8234
1852
root 2.42285 17.2004 -7.65953 13.2266 -54.1575 713.13
lowerback -21.1749 -0.860228 -6.31957
upperback -6.83878 0.104572 -4.57834
thorax 4.34942 -0.0991073 -1.31246
lowerneck -13.4845 2.06012 -1.34643
upperneck 34.2627 0.768421 5.99621
head 13.8409 0.706897 2.70449
rclavicle -1.32788e-013 -3.49861e-014
rhumerus 78.6753 -37.7301 -23.9524
rradius 95.6377
rwrist 53.6292
rhand -36.8979 -16.9661
rfingers 7.12502
rthumb -9.97616 -46.7097
lclavicle -1.32788e-013 -3.49861e-014
lhumerus 41.2909 -39.5726 83.1099
lradius 97.7528
lwrist 10.109
lhand -43.1393 51.2075
lfingers 7.12502
lthumb -15.9925 -639.433
rfemur -6.66129 11.0827 14.8375
rtibia 35.9715
rfoot -8.11293 8.57427
rtoes 20.4162
lfemur -21.9827 -16.0064 -3.47826
ltibia 30.8341
lfoot -29.2973 -0.658356
ltoes -36.269
1853
root 2.47612 17.2308 -7.46031 12.1558 -59.0164 715.204
lowerback -21.6106 -1.8114 -7.62361
upperback -7.12038 -0.930408 -3.84598
thorax 4.29754 -0.609435 -0.0523618
lowerneck -14.1805 1.09889 -1.72263
upperneck 34.3566 -0.274561 4.94527
head 14.0937 0.0398332 2.19158
rclavicle -4.77083e-015 -7.95139e-015
rhumerus 78.7824 -39.8859 -28.6969
rradius 98.0237
rwrist 53.2798
rhand -37.3022 -18.0306
rfingers 7.12502
rthumb -10.3662 -47.7551
lclavicle -4.77083e-015 -7.95139e-015
lhumerus 48.545 -34.4845 80.2511
lradius 98.8466
lwrist 5.90453
lhand -40.8418 52.7596
lfingers 7.12502
lthumb -13.7792 -637.717
rfemur -7.27189 12.2034 12.0824
rtibia 35.0999
rfoot -9.3575 5.43758
rtoes 19.6965
lfemur -20.8128 -13.7164 -6.65606
ltibia 30.7611
lfoot -28.2768 2.16082
ltoes -36.1757
